<svg version="1.1" xmlns="http://www.w3.org/2000/svg" viewBox="124.98 224.55 750.03 150.9"> <rect transform="matrix(.4526 0 0 .4526 0 89.51)" x="276.18" y="298.41" width="333.33" height="333.33" rx="13.333" ry="13.333" fill="#4f46e5"></rect> <path transform="matrix(.4526 0 0 .4526 0 89.51)" d="m501.43 456.08v1.6088q-0.16808 7.0834-1.4887 14.671-1.2966 7.6117-3.6498 15.199-2.3771 7.5876-5.6667 15.031-3.2896 7.4196-7.3955 14.215-4.082 6.7953-8.8122 12.75-4.7303 5.9549-9.9648 10.517l-12.582-7.2755q2.9534-4.9704 5.3786-10.829 2.4012-5.8828 4.3461-12.294 1.9209-6.4111 3.3136-13.158 1.3927-6.7713 2.3291-13.422 0.93645-6.6752 1.3927-13.134 0.45622-6.4591 0.45622-12.27 0-4.5622-0.024012-10.349-0.048023-5.7868-0.67232-11.79-0.64831-5.9789-2.089-11.67-1.4167-5.7147-4.25-10.181-2.8334-4.4661-7.2515-7.1794-4.4421-2.6893-11.021-2.6893-5.8348 0-10.013 1.9689-4.178 1.993-7.0834 5.3306-2.9054 3.3376-4.6342 7.7077-1.7528 4.3941-2.7133 9.2444-0.96046 4.8503-1.2726 9.7967-0.28814 4.9464-0.28814 9.3405v23.531h36.377v13.951h-36.377v29.534h-33.52v-61.782q0-13.254 4.226-24.66 4.226-11.405 11.958-19.785 7.7077-8.404 18.561-13.182 10.853-4.7543 24.18-4.7543 9.0283 0 16.928 2.5692 7.8998 2.5692 14.383 7.0834 6.5071 4.5142 11.622 10.733 5.1145 6.195 8.5241 13.543 3.4096 7.3475 5.1865 15.535 1.7769 8.1879 1.6088 16.544z" fill="#ffff"></path> <path transform="matrix(.4526 0 0 .4526 0 89.51)" d="m797.32 465.19v1.4343q-0.14985 6.3151-1.3272 13.08-1.156 6.7861-3.2539 13.551-2.1193 6.7647-5.0521 13.401-2.9328 6.6148-6.5934 12.673-3.6392 6.0582-7.8564 11.367-4.2172 5.309-8.884 9.3763l-11.217-6.4864q2.6331-4.4313 4.7952-9.6546 2.1407-5.2448 3.8747-10.96 1.7126-5.7157 2.9542-11.731 1.2416-6.0368 2.0765-11.967 0.83488-5.9512 1.2416-11.71 0.40674-5.7585 0.40674-10.939 0-4.0674-0.021407-9.2265-0.042814-5.1591-0.5994-10.511-0.57799-5.3304-1.8624-10.404-1.263-5.0949-3.7891-9.0766-2.526-3.9817-6.465-6.4007-3.9603-2.3976-9.8259-2.3976-5.2019 0-8.9268 1.7554-3.7248 1.7768-6.3151 4.7524-2.5903 2.9756-4.1316 6.8717-1.5627 3.9175-2.419 8.2418-0.85629 4.3242-1.1346 8.7341-0.25689 4.4099-0.25689 8.3274v20.979h32.432v12.438h-32.432v26.331h-29.884v-55.081q0-11.817 3.7677-21.985 3.7677-10.168 10.661-17.64 6.8717-7.4925 16.548-11.753 9.676-4.2386 21.557-4.2386 8.0491 0 15.092 2.2906 7.043 2.2906 12.823 6.3151 5.8013 4.0245 10.361 9.569 4.5597 5.523 7.5995 12.074 3.0398 6.5506 4.6239 13.85 1.5841 7.2998 1.4343 14.75zm42.065-48.701v100.55h-25.432v-126.97h9.7831l15.649 26.416zm42.151 59.298q4.6668 1.0704 9.3335 1.6698 4.6668 0.5994 9.3977 0.5994 4.9665 0 9.2265-0.94192 4.26-0.94192 7.3855-3.1683 3.104-2.2049 4.9236-5.9084 1.7982-3.682 1.7982-9.1837 0-4.4313-1.1988-8.1133-1.1988-3.7034-3.575-6.3365-2.3762-2.6331-5.8442-4.0888-3.4466-1.4771-8.0491-1.4771-4.2814 0-7.7066 1.5841-3.4251 1.5841-6.0154 4.26-2.6117 2.6759-4.4527 6.2081-1.841 3.5322-3.0398 7.3641-1.1988 3.8533-1.734 7.7494-0.53518 3.9175-0.53518 7.3855 0 0.5994 0 1.1988 0 0.5994 0.085629 1.1988zm62.68-17.147q0 5.3304-1.7126 9.5262-1.734 4.1744-4.7096 7.3213-2.9756 3.1683-6.8931 5.3518-3.9175 2.1835-8.3488 3.575-4.4313 1.3915-9.1409 1.9909-4.7096 0.5994-9.1409 0.5994-5.6515 0-11.153-0.79207-5.4802-0.79207-10.832-2.5046 0.83488 4.9665 2.6331 9.4406 1.8196 4.4741 4.8166 7.8136 3.0184 3.3609 7.4069 5.309 4.4099 1.9695 10.425 1.9695 4.0031 0 7.5995-1.2202 3.6178-1.1988 6.6362-3.3823 2.997-2.1835 5.309-5.1805 2.2906-3.0184 3.7248-6.7004l10.982 4.0674q-2.4832 5.9298-6.8075 10.254-4.3242 4.3457-9.7831 7.15-5.4588 2.8257-11.603 4.1958-6.1224 1.3487-12.138 1.3487-9.9329 0-18.367-3.3609-8.4344-3.3395-14.535-9.3549-6.0796-6.0368-9.5476-14.386-3.468-8.3488-3.468-18.282 0-9.9329 3.468-18.282 3.468-8.3702 9.5476-14.386 6.101-6.0154 14.535-9.3763 8.4344-3.3395 18.367-3.3395 4.8166 0 9.8473 0.68503 5.0521 0.66362 9.7831 2.1407 4.7524 1.4557 8.9696 3.7891 4.1958 2.3334 7.3213 5.7585 3.1254 3.4251 4.9665 7.9421 1.841 4.5169 1.841 10.318zm56.451 10.468 33.417 47.931h-25.432l-21.3-30.484-21.75 30.484h-17.618l32.753-40.031-32.753-46.903h25.453l20.615 29.52 22.413-29.52h17.618l-33.417 39.004zm185-60.454-38.383 108.38h-27.337l-40.481-108.38h30.484l30.034 87.234 27.166-87.234h18.517zm95.647 64.735q0 6.7647-1.7982 12.716-1.8196 5.9512-5.0093 10.982-3.2111 5.0521-7.728 9.0766-4.4955 4.0245-9.8901 6.8075-5.3732 2.7829-11.517 4.3028-6.1224 1.4985-12.609 1.4985-6.465 0-12.566-1.4985-6.0796-1.5199-11.474-4.3028-5.3732-2.7829-9.8901-6.8075-4.5169-4.0245-7.728-9.0766-3.1897-5.0307-4.9879-11.025-1.8196-5.9726-1.8196-12.673 0-6.7004 1.8196-12.673 1.7982-5.994 4.9879-11.025 3.2111-5.0521 7.728-9.0766 4.5169-4.0245 9.8901-6.8075 5.3946-2.7829 11.474-4.3028 6.101-1.4985 12.566-1.4985 6.4864 0 12.609 1.4985 6.1439 1.5199 11.517 4.3028 5.3946 2.7829 9.8901 6.8075 4.5169 4.0245 7.728 9.0766 3.1897 5.0307 5.0093 11.025 1.7982 5.9726 1.7982 12.673zm-25.881 0q0-3.6178-0.42814-7.6424-0.40674-4.0245-1.3915-7.8992-0.96332-3.8747-2.6759-7.4497-1.6912-3.575-4.1744-6.2509-2.4832-2.6759-5.9298-4.2814-3.468-1.6269-8.0705-1.6269-4.3671 0-7.7494 1.6484-3.3823 1.6698-5.9084 4.4099-2.5046 2.7401-4.2172 6.3579-1.6912 3.6178-2.7401 7.4925-1.049 3.8747-1.4985 7.835-0.44955 3.9389-0.44955 7.4069 0 3.468 0.44955 7.4069 0.44955 3.9603 1.4985 7.8778 1.049 3.8961 2.7401 7.4711 1.7126 3.575 4.2172 6.3365 2.526 2.7401 5.9084 4.3885 3.3823 1.6698 7.7494 1.6698 4.5169 0 7.9849-1.6269 3.468-1.6055 5.994-4.3242 2.5046-2.7187 4.1744-6.2509 1.6484-3.5322 2.6545-7.4497 1.0275-3.9175 1.4343-7.8992 0.42814-3.9817 0.42814-7.5995zm68.631-64.264q0 2.8472-1.0918 5.416-1.0918 2.5475-2.9756 4.4313-1.8838 1.8838-4.4313 2.9756-2.5689 1.0918-5.4374 1.0918-2.8472 0-5.3732-1.0918-2.526-1.0918-4.4099-2.9756-1.8624-1.8838-2.9542-4.4313-1.0918-2.5689-1.0918-5.416 0-2.8686 1.0918-5.3946 1.0918-2.526 2.9542-4.3885 1.8838-1.8838 4.4099-2.9756 2.526-1.0918 5.3732-1.0918 2.8686 0 5.4374 1.0918 2.5475 1.0918 4.4313 2.9756 1.8838 1.8624 2.9756 4.3885 1.0918 2.526 1.0918 5.3946zm-1.1346 21.065v86.849h-25.517v-86.849h25.517zm42.215 45.597q4.6668 1.0704 9.3335 1.6698 4.6668 0.5994 9.4192 0.5994 4.9665 0 9.2051-0.94192 4.26-0.94192 7.3855-3.1683 3.1254-2.2049 4.9236-5.9084 1.8196-3.682 1.8196-9.1837 0-4.4313-1.2202-8.1133-1.1988-3.7034-3.575-6.3365-2.3548-2.6331-5.8227-4.0888-3.468-1.4771-8.0491-1.4771-4.3028 0-7.728 1.5841-3.4251 1.5841-6.0154 4.26-2.5903 2.6759-4.4313 6.2081-1.841 3.5322-3.0612 7.3641-1.1988 3.8533-1.734 7.7494-0.51377 3.9175-0.51377 7.3855 0 0.5994 0 1.1988 0 0.5994 0.064221 1.1988zm62.702-17.147q0 5.3304-1.734 9.5262-1.734 4.1744-4.7096 7.3213-2.9756 3.1683-6.8717 5.3518-3.9175 2.1835-8.3702 3.575-4.4313 1.3915-9.1409 1.9909-4.6882 0.5994-9.1409 0.5994-5.6515 0-11.132-0.79207-5.5016-0.79207-10.832-2.5046 0.81347 4.9665 2.6331 9.4406 1.7982 4.4741 4.8166 7.8136 2.997 3.3609 7.4069 5.309 4.4099 1.9695 10.425 1.9695 3.9817 0 7.5995-1.2202 3.6178-1.1988 6.6148-3.3823 3.0184-2.1835 5.309-5.1805 2.2906-3.0184 3.7248-6.7004l10.982 4.0674q-2.4832 5.9298-6.8075 10.254-4.3242 4.3457-9.7831 7.15-5.4588 2.8257-11.581 4.1958-6.1439 1.3487-12.159 1.3487-9.9329 0-18.367-3.3609-8.4344-3.3395-14.514-9.3549-6.101-6.0368-9.569-14.386-3.468-8.3488-3.468-18.282 0-9.9329 3.468-18.282 3.468-8.3702 9.569-14.386 6.0796-6.0154 14.514-9.3763 8.4344-3.3395 18.367-3.3395 4.8166 0 9.8687 0.68503 5.0307 0.66362 9.7831 2.1407 4.731 1.4557 8.9482 3.7891 4.2172 2.3334 7.3427 5.7585 3.1254 3.4251 4.9665 7.9421 1.841 4.5169 1.841 10.318zm94.834-28.536-34.251 86.934h-22.884l-31.597-86.934h25.432l23.184 69.252 22.499-69.252h17.618zm4.8808 49.75q0-5.9298 1.0275-12.331 1.0061-6.4007 2.9328-12.801 1.9052-6.4007 4.6239-12.652 2.6973-6.2295 6.101-11.967h18.581q-1.8838 5.6515-3.3395 11.795-1.4771 6.1224-2.4832 12.266-1.0275 6.1224-1.5841 11.988-0.57799 5.887-0.57799 10.918 0 2.9328 0.27829 6.2937 0.25689 3.3395 0.94192 6.7004 0.66362 3.3395 1.9052 6.4221 1.2416 3.0826 3.2111 5.4588 1.9481 2.3762 4.7738 3.7677 2.8257 1.3915 6.6576 1.3915 3.7677 0 6.7433-1.6912t5.2233-4.4527q2.2478-2.7401 3.8319-6.2723 1.5841-3.5322 2.6117-7.257 1.0061-3.7248 1.4985-7.2998 0.49236-3.575 0.49236-6.4436v-43.585h25.432v86.934h-9.7831l-11.667-20.251q-2.1835 5.0521-5.309 9.1409-3.1254 4.1102-7.1072 7.043-3.9817 2.9328-8.8412 4.5169-4.8594 1.5841-10.511 1.5841-9.0124 0-15.713-2.9328-6.7004-2.9328-11.153-8.1347-4.4313-5.1805-6.6148-12.373-2.1835-7.1928-2.1835-15.777zm197.72-81.733v118.92h-9.7831l-11.303-18.881q-1.6484 4.731-4.5383 8.5629-2.9114 3.8533-6.7004 6.5934-3.8105 2.7401-8.3702 4.26-4.5383 1.4985-9.5904 1.4985-9.9329 0-17.747-3.5322-7.835-3.5536-13.251-9.676-5.416-6.1439-8.2846-14.407-2.8686-8.2846-2.8686-17.768 0-9.4834 2.8686-17.768 2.8686-8.2632 8.2846-14.364 5.416-6.101 13.251-9.6332 7.8136-3.5322 17.747-3.5322 7.5995 0 13.957 2.9328 6.3579 2.9328 10.875 9.1837v-42.386h25.453zm-25.603 75.567q0-3.0184-0.44955-6.6148-0.44955-3.6178-1.4343-7.2998-0.96332-3.7034-2.5475-7.15-1.5841-3.468-3.8747-6.1867-2.2906-2.6973-5.3518-4.3242-3.0398-1.6055-6.9573-1.6055-4.2814 0-7.4497 1.5413-3.1683 1.5413-5.416 4.1316-2.2692 2.5903-3.7248 5.994-1.4771 3.3823-2.2906 7.0644-0.83488 3.682-1.1774 7.4069-0.34251 3.7248-0.34251 7.043 0 3.3181 0.34251 7.043 0.34251 3.7248 1.1774 7.4069 0.81347 3.682 2.2906 7.1072 1.4557 3.4251 3.7248 6.0154 2.2478 2.6117 5.416 4.153 3.1683 1.5413 7.4497 1.5413 4.2814 0 7.5353-1.4985 3.2325-1.5199 5.523-4.1102 2.2906-2.5903 3.7677-5.9512 1.4557-3.3395 2.2906-7.0644 0.83488-3.7248 1.156-7.4925 0.34251-3.7677 0.34251-7.15zm72.249 14.15v29.199h-25.432v-118.92h25.432v78.051q6.2509-4.5169 12.309-9.9329 6.0582-5.416 11.56-11.41 5.4802-5.9726 10.19-12.223 4.7096-6.2509 8.2418-12.502h17.318q-5.2662 8.884-12.502 17.725-7.2142 8.8412-15.734 16.912l28.536 52.298h-28.086l-20.23-36.285q-5.6515 3.8533-11.603 7.0858zm161.37-14.45q0 6.7647-1.8196 12.716-1.7982 5.9512-4.9879 10.982-3.2111 5.0521-7.728 9.0766-4.5169 4.0245-9.8901 6.8075-5.3732 2.7829-11.517 4.3028-6.1224 1.4985-12.609 1.4985-6.465 0-12.566-1.4985-6.101-1.5199-11.474-4.3028-5.3732-2.7829-9.8901-6.8075-4.5169-4.0245-7.728-9.0766-3.1897-5.0307-4.9879-11.025-1.8196-5.9726-1.8196-12.673 0-6.7004 1.8196-12.673 1.7982-5.994 4.9879-11.025 3.2111-5.0521 7.728-9.0766 4.5169-4.0245 9.8901-6.8075 5.3732-2.7829 11.474-4.3028 6.101-1.4985 12.566-1.4985 6.4864 0 12.609 1.4985 6.1439 1.5199 11.517 4.3028 5.3732 2.7829 9.8901 6.8075 4.5169 4.0245 7.728 9.0766 3.1897 5.0307 4.9879 11.025 1.8196 5.9726 1.8196 12.673zm-25.903 0q0-3.6178-0.40674-7.6424-0.40674-4.0245-1.3915-7.8992-0.98473-3.8747-2.6759-7.4497-1.6912-3.575-4.1744-6.2509-2.4832-2.6759-5.9512-4.2814-3.4466-1.6269-8.0491-1.6269-4.3671 0-7.7494 1.6484-3.3823 1.6698-5.9084 4.4099-2.526 2.7401-4.2172 6.3579-1.6912 3.6178-2.7401 7.4925-1.049 3.8747-1.4985 7.835-0.44955 3.9389-0.44955 7.4069 0 3.468 0.44955 7.4069 0.44955 3.9603 1.4985 7.8778 1.049 3.8961 2.7401 7.4711 1.6912 3.575 4.2172 6.3365 2.526 2.7401 5.9084 4.3885 3.3823 1.6698 7.7494 1.6698 4.5169 0 7.9849-1.6269 3.468-1.6055 5.9726-4.3242 2.526-2.7187 4.1958-6.2509 1.6484-3.5322 2.6545-7.4497 1.0275-3.9175 1.4343-7.8992 0.40674-3.9817 0.40674-7.5995z" fill="#fff"></path> </svg>
