<svg xmlns="http://www.w3.org/2000/svg" version="1.1" xmlns:xlink="http://www.w3.org/1999/xlink" xmlns:svgjs="http://svgjs.com/svgjs" width="1440" height="560" preserveAspectRatio="none" viewBox="0 0 1440 560"><g mask="url(&quot;#SvgjsMask1016&quot;)" fill="none"><path d="M1117 309L1325 101" stroke-width="6" stroke="url(#SvgjsLinearGradient1017)" stroke-linecap="round" class="TopRight"></path><path d="M757 111L345 523" stroke-width="10" stroke="url(#SvgjsLinearGradient1018)" stroke-linecap="round" class="BottomLeft"></path><path d="M217 159L392 -16" stroke-width="6" stroke="url(#SvgjsLinearGradient1017)" stroke-linecap="round" class="TopRight"></path><path d="M873 350L1044 179" stroke-width="6" stroke="url(#SvgjsLinearGradient1018)" stroke-linecap="round" class="BottomLeft"></path><path d="M914 340L1190 64" stroke-width="8" stroke="url(#SvgjsLinearGradient1018)" stroke-linecap="round" class="BottomLeft"></path><path d="M1024 354L1424 -46" stroke-width="8" stroke="url(#SvgjsLinearGradient1018)" stroke-linecap="round" class="BottomLeft"></path><path d="M1269 13L853 429" stroke-width="8" stroke="url(#SvgjsLinearGradient1018)" stroke-linecap="round" class="BottomLeft"></path><path d="M30 559L367 222" stroke-width="6" stroke="url(#SvgjsLinearGradient1017)" stroke-linecap="round" class="TopRight"></path><path d="M10 539L-358 907" stroke-width="10" stroke="url(#SvgjsLinearGradient1017)" stroke-linecap="round" class="TopRight"></path><path d="M564 537L205 896" stroke-width="6" stroke="url(#SvgjsLinearGradient1017)" stroke-linecap="round" class="TopRight"></path><path d="M1406 189L1013 582" stroke-width="6" stroke="url(#SvgjsLinearGradient1018)" stroke-linecap="round" class="BottomLeft"></path><path d="M1195 520L1519 196" stroke-width="10" stroke="url(#SvgjsLinearGradient1018)" stroke-linecap="round" class="BottomLeft"></path><path d="M1139 397L823 713" stroke-width="8" stroke="url(#SvgjsLinearGradient1018)" stroke-linecap="round" class="BottomLeft"></path><path d="M1066 24L714 376" stroke-width="10" stroke="url(#SvgjsLinearGradient1018)" stroke-linecap="round" class="BottomLeft"></path><path d="M834 166L481 519" stroke-width="8" stroke="url(#SvgjsLinearGradient1017)" stroke-linecap="round" class="TopRight"></path><path d="M1266 191L982 475" stroke-width="10" stroke="url(#SvgjsLinearGradient1018)" stroke-linecap="round" class="BottomLeft"></path><path d="M1148 520L1339 329" stroke-width="8" stroke="url(#SvgjsLinearGradient1018)" stroke-linecap="round" class="BottomLeft"></path><path d="M1073 128L1239 -38" stroke-width="10" stroke="url(#SvgjsLinearGradient1018)" stroke-linecap="round" class="BottomLeft"></path><path d="M938 31L701 268" stroke-width="8" stroke="url(#SvgjsLinearGradient1018)" stroke-linecap="round" class="BottomLeft"></path><path d="M899 503L598 804" stroke-width="8" stroke="url(#SvgjsLinearGradient1017)" stroke-linecap="round" class="TopRight"></path><path d="M1232 183L934 481" stroke-width="10" stroke="url(#SvgjsLinearGradient1017)" stroke-linecap="round" class="TopRight"></path><path d="M493 471L875 89" stroke-width="8" stroke="url(#SvgjsLinearGradient1018)" stroke-linecap="round" class="BottomLeft"></path><path d="M1072 250L743 579" stroke-width="6" stroke="url(#SvgjsLinearGradient1018)" stroke-linecap="round" class="BottomLeft"></path><path d="M107 14L366 -245" stroke-width="6" stroke="url(#SvgjsLinearGradient1018)" stroke-linecap="round" class="BottomLeft"></path><path d="M1011 156L871 296" stroke-width="10" stroke="url(#SvgjsLinearGradient1017)" stroke-linecap="round" class="TopRight"></path><path d="M1165 48L917 296" stroke-width="10" stroke="url(#SvgjsLinearGradient1018)" stroke-linecap="round" class="BottomLeft"></path><path d="M31 323L320 34" stroke-width="6" stroke="url(#SvgjsLinearGradient1017)" stroke-linecap="round" class="TopRight"></path><path d="M1229 309L1559 -21" stroke-width="10" stroke="url(#SvgjsLinearGradient1017)" stroke-linecap="round" class="TopRight"></path><path d="M640 344L786 198" stroke-width="6" stroke="url(#SvgjsLinearGradient1018)" stroke-linecap="round" class="BottomLeft"></path><path d="M5 486L421 70" stroke-width="10" stroke="url(#SvgjsLinearGradient1018)" stroke-linecap="round" class="BottomLeft"></path><path d="M50 150L352 -152" stroke-width="10" stroke="url(#SvgjsLinearGradient1018)" stroke-linecap="round" class="BottomLeft"></path><path d="M204 162L477 -111" stroke-width="10" stroke="url(#SvgjsLinearGradient1017)" stroke-linecap="round" class="TopRight"></path><path d="M798 115L558 355" stroke-width="6" stroke="url(#SvgjsLinearGradient1017)" stroke-linecap="round" class="TopRight"></path><path d="M61 511L-345 917" stroke-width="10" stroke="url(#SvgjsLinearGradient1018)" stroke-linecap="round" class="BottomLeft"></path><path d="M212 19L-65 296" stroke-width="6" stroke="url(#SvgjsLinearGradient1018)" stroke-linecap="round" class="BottomLeft"></path><path d="M1042 90L1236 -104" stroke-width="6" stroke="url(#SvgjsLinearGradient1017)" stroke-linecap="round" class="TopRight"></path><path d="M1070 27L1415 -318" stroke-width="6" stroke="url(#SvgjsLinearGradient1017)" stroke-linecap="round" class="TopRight"></path><path d="M1330 166L1593 -97" stroke-width="8" stroke="url(#SvgjsLinearGradient1017)" stroke-linecap="round" class="TopRight"></path><path d="M254 235L569 -80" stroke-width="6" stroke="url(#SvgjsLinearGradient1018)" stroke-linecap="round" class="BottomLeft"></path></g><defs><mask id="SvgjsMask1016"><rect width="1440" height="560" fill="#ffffff"></rect></mask><linearGradient x1="0%" y1="100%" x2="100%" y2="0%" id="SvgjsLinearGradient1017"><stop stop-color="rgba(86, 88, 221, 0)" offset="0"></stop><stop stop-color="rgba(86, 88, 221, 1)" offset="1"></stop></linearGradient><linearGradient x1="100%" y1="0%" x2="0%" y2="100%" id="SvgjsLinearGradient1018"><stop stop-color="rgba(86, 88, 221, 0)" offset="0"></stop><stop stop-color="rgba(86, 88, 221, 1)" offset="1"></stop></linearGradient></defs></svg>